<svg xmlns="http://www.w3.org/2000/svg" viewBox="0 0 24 24" fill="none" shape-rendering="auto"><metadata xmlns:rdf="http://www.w3.org/1999/02/22-rdf-syntax-ns#" xmlns:xsi="http://www.w3.org/2001/XMLSchema-instance" xmlns:dc="http://purl.org/dc/elements/1.1/" xmlns:dcterms="http://purl.org/dc/terms/"><rdf:RDF><rdf:Description><dc:title>Bootstrap Icons</dc:title><dc:creator>The Bootstrap Authors</dc:creator><dc:source xsi:type="dcterms:URI">https://github.com/twbs/icons</dc:source><dcterms:license xsi:type="dcterms:URI">https://github.com/twbs/icons/blob/main/LICENSE</dcterms:license><dc:rights>„Bootstrap Icons” (https://github.com/twbs/icons) by „The Bootstrap Authors”, licensed under „MIT” (https://github.com/twbs/icons/blob/main/LICENSE)</dc:rights></rdf:Description></rdf:RDF></metadata><mask id="viewboxMask"><rect width="24" height="24" rx="0" ry="0" x="0" y="0" fill="#fff" /></mask><g mask="url(#viewboxMask)"><rect fill="#c5e1a5" width="24" height="24" x="0" y="0" /><g transform="translate(4 4)"><g fill="#fff"><path d="m7.788 2.34-.799 1.278A.25.25 0 0 0 7.201 4h1.598a.25.25 0 0 0 .212-.382L8.212 2.34a.25.25 0 0 0-.424 0v.001Zm0 11.32-.799-1.277A.25.25 0 0 1 7.201 12h1.598a.25.25 0 0 1 .212.383l-.799 1.278a.25.25 0 0 1-.424 0ZM3.617 9.01 2.34 8.213a.25.25 0 0 1 0-.424l1.278-.799A.25.25 0 0 1 4 7.201v1.6a.25.25 0 0 1-.383.211V9.01Zm10.043-.798-1.277.8A.25.25 0 0 1 12 8.798V7.2a.25.25 0 0 1 .383-.212l1.278.8a.25.25 0 0 1 0 .423l-.001.001Z"/><path d="M6.5 0A1.5 1.5 0 0 0 5 1.5v3a.5.5 0 0 1-.5.5h-3A1.5 1.5 0 0 0 0 6.5v3A1.5 1.5 0 0 0 1.5 11h3a.5.5 0 0 1 .5.5v3A1.5 1.5 0 0 0 6.5 16h3a1.5 1.5 0 0 0 1.5-1.5v-3a.5.5 0 0 1 .5-.5h3A1.5 1.5 0 0 0 16 9.5v-3A1.5 1.5 0 0 0 14.5 5h-3a.5.5 0 0 1-.5-.5v-3A1.5 1.5 0 0 0 9.5 0h-3ZM6 1.5a.5.5 0 0 1 .5-.5h3a.5.5 0 0 1 .5.5v3A1.5 1.5 0 0 0 11.5 6h3a.5.5 0 0 1 .5.5v3a.5.5 0 0 1-.5.5h-3a1.5 1.5 0 0 0-1.5 1.5v3a.5.5 0 0 1-.5.5h-3a.5.5 0 0 1-.5-.5v-3A1.5 1.5 0 0 0 4.5 10h-3a.5.5 0 0 1-.5-.5v-3a.5.5 0 0 1 .5-.5h3A1.5 1.5 0 0 0 6 4.5v-3Z"/></g></g></g></svg>