<svg xmlns="http://www.w3.org/2000/svg" viewBox="0 0 24 24" fill="none" shape-rendering="auto"><metadata xmlns:rdf="http://www.w3.org/1999/02/22-rdf-syntax-ns#" xmlns:xsi="http://www.w3.org/2001/XMLSchema-instance" xmlns:dc="http://purl.org/dc/elements/1.1/" xmlns:dcterms="http://purl.org/dc/terms/"><rdf:RDF><rdf:Description><dc:title>Bootstrap Icons</dc:title><dc:creator>The Bootstrap Authors</dc:creator><dc:source xsi:type="dcterms:URI">https://github.com/twbs/icons</dc:source><dcterms:license xsi:type="dcterms:URI">https://github.com/twbs/icons/blob/main/LICENSE</dcterms:license><dc:rights>„Bootstrap Icons” (https://github.com/twbs/icons) by „The Bootstrap Authors”, licensed under „MIT” (https://github.com/twbs/icons/blob/main/LICENSE)</dc:rights></rdf:Description></rdf:RDF></metadata><mask id="viewboxMask"><rect width="24" height="24" rx="0" ry="0" x="0" y="0" fill="#fff" /></mask><g mask="url(#viewboxMask)"><rect fill="#a5d6a7" width="24" height="24" x="0" y="0" /><g transform="translate(4 4)"><path d="M0 2a1 1 0 0 1 1-1h14a1 1 0 0 1 1 1v2a1 1 0 0 1-1 1v7.5a2.5 2.5 0 0 1-2.5 2.5h-9A2.5 2.5 0 0 1 1 12.5V5a1 1 0 0 1-1-1V2Zm2 3v7.5A1.5 1.5 0 0 0 3.5 14h9a1.5 1.5 0 0 0 1.5-1.5V5H2Zm13-3H1v2h14V2ZM5 7.5a.5.5 0 0 1 .5-.5h5a.5.5 0 0 1 0 1h-5a.5.5 0 0 1-.5-.5Z" fill="#fff"/></g></g></svg>