<svg xmlns="http://www.w3.org/2000/svg" viewBox="0 0 5 5" fill="none" shape-rendering="crispEdges"><metadata xmlns:rdf="http://www.w3.org/1999/02/22-rdf-syntax-ns#" xmlns:xsi="http://www.w3.org/2001/XMLSchema-instance" xmlns:dc="http://purl.org/dc/elements/1.1/" xmlns:dcterms="http://purl.org/dc/terms/"><rdf:RDF><rdf:Description><dc:title>Identicon</dc:title><dc:creator>DiceBear</dc:creator><dc:source xsi:type="dcterms:URI">https://www.dicebear.com</dc:source><dcterms:license xsi:type="dcterms:URI">https://creativecommons.org/publicdomain/zero/1.0/</dcterms:license><dc:rights>„Identicon” (https://www.dicebear.com) by „DiceBear”, licensed under „CC0 1.0” (https://creativecommons.org/publicdomain/zero/1.0/)</dc:rights></rdf:Description></rdf:RDF></metadata><mask id="viewboxMask"><rect width="5" height="5" rx="0" ry="0" x="0" y="0" fill="#fff" /></mask><g mask="url(#viewboxMask)"><path d="M0 0h1v1H0V0ZM4 0h1v1H4V0ZM3 0H2v1h1V0Z" fill="#fdd835"/><path d="M1 1H0v1h1V1ZM5 1H4v1h1V1Z" fill="#fdd835"/><path d="M2 2H0v1h2V2ZM5 2H3v1h2V2Z" fill="#fdd835"/><path d="M1 3H0v1h1V3ZM5 3H4v1h1V3Z" fill="#fdd835"/><path fill="#fdd835" d="M0 4h5v1H0z"/></g></svg>