<svg xmlns="http://www.w3.org/2000/svg" viewBox="0 0 24 24" fill="none" shape-rendering="auto"><metadata xmlns:rdf="http://www.w3.org/1999/02/22-rdf-syntax-ns#" xmlns:xsi="http://www.w3.org/2001/XMLSchema-instance" xmlns:dc="http://purl.org/dc/elements/1.1/" xmlns:dcterms="http://purl.org/dc/terms/"><rdf:RDF><rdf:Description><dc:title>Bootstrap Icons</dc:title><dc:creator>The Bootstrap Authors</dc:creator><dc:source xsi:type="dcterms:URI">https://github.com/twbs/icons</dc:source><dcterms:license xsi:type="dcterms:URI">https://github.com/twbs/icons/blob/main/LICENSE</dcterms:license><dc:rights>„Bootstrap Icons” (https://github.com/twbs/icons) by „The Bootstrap Authors”, licensed under „MIT” (https://github.com/twbs/icons/blob/main/LICENSE)</dc:rights></rdf:Description></rdf:RDF></metadata><mask id="viewboxMask"><rect width="24" height="24" rx="0" ry="0" x="0" y="0" fill="#fff" /></mask><g mask="url(#viewboxMask)"><rect fill="#ffcc80" width="24" height="24" x="0" y="0" /><g transform="translate(4 4)"><g fill="#fff"><path fill-rule="evenodd" clip-rule="evenodd" d="M5.04.303A.5.5 0 0 1 5.5 0h5c.2 0 .38.12.46.303l3 7a.499.499 0 0 1-.363.687h-.002c-.15.03-.3.056-.45.081a32.731 32.731 0 0 1-4.645.425V13.5a.5.5 0 0 1-1 0V8.495a32.753 32.753 0 0 1-4.645-.425c-.15-.025-.3-.05-.45-.08h-.003a.5.5 0 0 1-.362-.688l3-7v.001ZM3.21 7.116c1.584.25 3.186.38 4.79.384a31.27 31.27 0 0 0 4.791-.384L10.171 1H5.83L3.209 7.116h.001Z"/><path d="M6.493 12.574a.5.5 0 0 1-.411.575c-.712.118-1.28.295-1.655.493a1.32 1.32 0 0 0-.37.265.3.3 0 0 0-.052.075l-.001.004-.004.01V14l.002.008c.004.012.01.023.016.033.04.058.089.109.145.15.165.13.435.27.813.395.751.25 1.82.414 3.024.414s2.273-.163 3.024-.414c.378-.126.648-.265.813-.395a.617.617 0 0 0 .146-.15.147.147 0 0 0 .015-.033L12 14v-.004a.302.302 0 0 0-.057-.09 1.319 1.319 0 0 0-.37-.264c-.376-.198-.943-.375-1.655-.493a.5.5 0 1 1 .164-.986c.77.127 1.452.328 1.957.594C12.5 13 13 13.4 13 14c0 .426-.26.752-.544.977-.29.228-.68.413-1.116.558-.878.293-2.059.465-3.34.465-1.281 0-2.462-.172-3.34-.465-.436-.145-.826-.33-1.116-.558C3.26 14.752 3 14.426 3 14c0-.599.5-1 .961-1.243.505-.266 1.187-.467 1.957-.594a.5.5 0 0 1 .575.411Z"/></g></g></g></svg>