<svg xmlns="http://www.w3.org/2000/svg" viewBox="0 0 24 24" fill="none" shape-rendering="auto"><metadata xmlns:rdf="http://www.w3.org/1999/02/22-rdf-syntax-ns#" xmlns:xsi="http://www.w3.org/2001/XMLSchema-instance" xmlns:dc="http://purl.org/dc/elements/1.1/" xmlns:dcterms="http://purl.org/dc/terms/"><rdf:RDF><rdf:Description><dc:title>Bootstrap Icons</dc:title><dc:creator>The Bootstrap Authors</dc:creator><dc:source xsi:type="dcterms:URI">https://github.com/twbs/icons</dc:source><dcterms:license xsi:type="dcterms:URI">https://github.com/twbs/icons/blob/main/LICENSE</dcterms:license><dc:rights>„Bootstrap Icons” (https://github.com/twbs/icons) by „The Bootstrap Authors”, licensed under „MIT” (https://github.com/twbs/icons/blob/main/LICENSE)</dc:rights></rdf:Description></rdf:RDF></metadata><mask id="viewboxMask"><rect width="24" height="24" rx="0" ry="0" x="0" y="0" fill="#fff" /></mask><g mask="url(#viewboxMask)"><rect fill="#ffcc80" width="24" height="24" x="0" y="0" /><g transform="translate(4 4)"><path d="M7 1.414V4H2a1 1 0 0 0-1 1v4a1 1 0 0 0 1 1h5v6h2v-6h3.532a1.001 1.001 0 0 0 .768-.36l1.933-2.32a.5.5 0 0 0 0-.64L13.3 4.36a1 1 0 0 0-.768-.36H9V1.414a1 1 0 0 0-2 0ZM12.532 5l1.666 2-1.666 2H2V5h10.532Z" fill="#fff"/></g></g></svg>