<svg xmlns="http://www.w3.org/2000/svg" viewBox="0 0 100 100" fill="none" shape-rendering="auto"><metadata xmlns:rdf="http://www.w3.org/1999/02/22-rdf-syntax-ns#" xmlns:xsi="http://www.w3.org/2001/XMLSchema-instance" xmlns:dc="http://purl.org/dc/elements/1.1/" xmlns:dcterms="http://purl.org/dc/terms/"><rdf:RDF><rdf:Description><dc:title>Glass</dc:title><dc:creator>DiceBear</dc:creator><dc:source xsi:type="dcterms:URI">https://www.dicebear.com</dc:source><dcterms:license xsi:type="dcterms:URI">https://creativecommons.org/publicdomain/zero/1.0/</dcterms:license><dc:rights>„Glass” (https://www.dicebear.com) by „DiceBear”, licensed under „CC0 1.0” (https://creativecommons.org/publicdomain/zero/1.0/)</dc:rights></rdf:Description></rdf:RDF></metadata><mask id="viewboxMask"><rect width="100" height="100" rx="0" ry="0" x="0" y="0" fill="#fff" /></mask><g mask="url(#viewboxMask)"><rect fill="#47eb7e" width="100" height="100" x="0" y="0" /><g style="mix-blend-mode:screen" opacity="0.6" filter="url(#dicebearGlass-a)"><g transform="translate(-25 -25)"><g transform="translate(-37, 72) rotate(103 75 75)"><path d="M17.6 148.7V3.2h62.8q16.2 0 28.3 6 12 5.8 18.9 16.9a50 50 0 0 1 6.7 26.6q0 15.6-7 26.3A43 43 0 0 1 108 95.2q-12.5 5.5-29 5.5H41.3V70H71q7 0 11.8-1.7a15 15 0 0 0 7.6-5.6 17 17 0 0 0 2.7-10q0-6.3-2.7-10.2a15 15 0 0 0-7.6-5.8q-4.9-2-11.8-2H57v114zm85.2-66.8 36.4 66.8h-43L60.9 81.9z" fill="white"/></g></g></g><g style="mix-blend-mode:screen" opacity="0.6" filter="url(#dicebearGlass-b)"><g transform="translate(-25 -25)"><g transform="translate(42, -70) rotate(167 75 75)"><path d="M17.6 148.6V3h62.8q16.2 0 28.3 6 12 5.8 18.9 16.9a50 50 0 0 1 6.7 26.5q0 15.7-7 26.4A43 43 0 0 1 108 95q-12.5 5.5-29 5.5H41.3V69.9H71q7 0 11.8-1.7a15 15 0 0 0 7.6-5.6 17 17 0 0 0 2.7-10q0-6.3-2.7-10.2a15 15 0 0 0-7.6-5.8q-4.9-2-11.8-2H57v114zm85.2-66.8 36.4 66.8h-43L60.9 81.8z" fill="white"/></g></g></g><defs><filter id="dicebearGlass-a" x="-57" y="-57" width="214" height="214" filterUnits="userSpaceOnUse" color-interpolation-filters="sRGB"><feFlood flood-opacity="0" result="BackgroundImageFix"/><feBlend in="SourceGraphic" in2="BackgroundImageFix" result="shape"/><feGaussianBlur stdDeviation="16" result="effect1_foregroundBlur_25_7"/></filter><filter id="dicebearGlass-b" x="-57" y="-57" width="214" height="214" filterUnits="userSpaceOnUse" color-interpolation-filters="sRGB"><feFlood flood-opacity="0" result="BackgroundImageFix"/><feBlend in="SourceGraphic" in2="BackgroundImageFix" result="shape"/><feGaussianBlur stdDeviation="16" result="effect1_foregroundBlur_25_7"/></filter></defs></g></svg>