<svg xmlns="http://www.w3.org/2000/svg" viewBox="0 0 24 24" fill="none" shape-rendering="auto"><metadata xmlns:rdf="http://www.w3.org/1999/02/22-rdf-syntax-ns#" xmlns:xsi="http://www.w3.org/2001/XMLSchema-instance" xmlns:dc="http://purl.org/dc/elements/1.1/" xmlns:dcterms="http://purl.org/dc/terms/"><rdf:RDF><rdf:Description><dc:title>Bootstrap Icons</dc:title><dc:creator>The Bootstrap Authors</dc:creator><dc:source xsi:type="dcterms:URI">https://github.com/twbs/icons</dc:source><dcterms:license xsi:type="dcterms:URI">https://github.com/twbs/icons/blob/main/LICENSE</dcterms:license><dc:rights>„Bootstrap Icons” (https://github.com/twbs/icons) by „The Bootstrap Authors”, licensed under „MIT” (https://github.com/twbs/icons/blob/main/LICENSE)</dc:rights></rdf:Description></rdf:RDF></metadata><mask id="viewboxMask"><rect width="24" height="24" rx="0" ry="0" x="0" y="0" fill="#fff" /></mask><g mask="url(#viewboxMask)"><rect fill="#f48fb1" width="24" height="24" x="0" y="0" /><g transform="translate(4 4)"><g fill="#fff"><path d="M8 1a7 7 0 1 0 0 14A7 7 0 0 0 8 1Zm0-1a8 8 0 1 1 0 16A8 8 0 0 1 8 0Z"/><path d="M4.285 6.433a.5.5 0 0 0 .683-.183A3.498 3.498 0 0 1 8 4.5c1.295 0 2.426.703 3.032 1.75a.5.5 0 0 0 .866-.5A4.499 4.499 0 0 0 5.75 4.103 4.5 4.5 0 0 0 4.102 5.75a.5.5 0 0 0 .183.683ZM7 9.5C7 8.672 6.552 8 6 8s-1 .672-1 1.5.448 1.5 1 1.5 1-.672 1-1.5Zm4 0c0-.828-.448-1.5-1-1.5s-1 .672-1 1.5.448 1.5 1 1.5 1-.672 1-1.5Z"/></g></g></g></svg>